<svg xmlns="http://www.w3.org/2000/svg" xmlns:xlink="http://www.w3.org/1999/xlink" id="Layer_1" width="1000" height="1000" x="0" y="0" enable-background="new 0 0 1000 1000" version="1.1" viewBox="0 0 1000 1000" xml:space="preserve"><g><path d="M764.35,140c52.745,0,95.656,42.912,95.656,95.659v528.718c0,52.727-42.911,95.623-95.656,95.623H235.661 c-52.751,0-95.667-42.896-95.667-95.623V235.659c0-52.747,42.916-95.659,95.667-95.659H764.35 M764.35,100H235.661 c-74.926,0-135.667,60.727-135.667,135.659v528.718C99.994,839.275,160.735,900,235.661,900H764.35 c74.929,0,135.656-60.725,135.656-135.623V235.659C900.006,160.727,839.278,100,764.35,100L764.35,100z"/><g><polygon points="448.557 500.016 265.304 683.27 184.926 602.881 368.185 419.633"/><polygon points="580.38 631.823 397.114 815.082 316.744 734.709 499.997 551.446"/><polygon points="683.264 265.306 499.997 448.57 419.62 368.197 602.882 184.928"/><polygon points="815.077 397.119 631.816 580.394 551.44 500.016 734.699 316.754"/></g></g></svg>